# xmcd CD database file
#
# Track frame offsets:
#	150
#	30717
#	62892
#	89160
#	136320
#	155272
#	202665
#
# Disc length: 2986 seconds
#
# Revision: 0
# Processed by: cddbd v1.5.2PL0 Copyright (c) Steve Scherf et al.
# Submitted via: CDex 1.70beta2
#
DISCID=590ba807
DTITLE=Capitol Quartet - Dig
DYEAR=2004
DGENRE=Jazz
TTITLE0=Le Quattro Sassofoni
TTITLE1=Dig JSB-1
TTITLE2=Fur Elise
TTITLE3=Paganini Variations
TTITLE4=Minutebug Waltz
TTITLE5=Bach, Beethoven, Bebop and Beyond
TTITLE6=Manteca
EXTD=YEAR: 2004
EXTT0=
EXTT1=
EXTT2=
EXTT3=
EXTT4=
EXTT5=
EXTT6=
PLAYORDER=
